<?xml version="1.0" encoding="UTF-8"?>
<svg id="Layer_2" data-name="Layer 2" xmlns="http://www.w3.org/2000/svg" xmlns:xlink="http://www.w3.org/1999/xlink" viewBox="0 0 249.87 53.91">
  <defs>
    <style>
      .cls-1 {
        fill: #fff;
      }

      .cls-2 {
        fill: url(#Degradado_sin_nombre_4-2);
      }

      .cls-3 {
        fill: url(#Degradado_sin_nombre_4-8);
      }

      .cls-4 {
        fill: url(#Degradado_sin_nombre_4-7);
      }

      .cls-5 {
        fill: url(#Degradado_sin_nombre_4-6);
      }

      .cls-6 {
        fill: url(#Degradado_sin_nombre_4-5);
      }

      .cls-7 {
        fill: url(#Degradado_sin_nombre_4-4);
      }

      .cls-8 {
        fill: url(#Degradado_sin_nombre_4-3);
      }

      .cls-9 {
        fill: url(#Degradado_sin_nombre_4);
      }
    </style>
    <linearGradient id="Degradado_sin_nombre_4" data-name="Degradado sin nombre 4" x1="52.54" y1="-2" x2="5.56" y2="44.98" gradientUnits="userSpaceOnUse">
      <stop offset="0" stop-color="#f0f"/>
      <stop offset="1" stop-color="#913bfe"/>
    </linearGradient>
    <linearGradient id="Degradado_sin_nombre_4-2" data-name="Degradado sin nombre 4" x1="50.2" y1="-4.34" x2="3.22" y2="42.64" xlink:href="#Degradado_sin_nombre_4"/>
    <linearGradient id="Degradado_sin_nombre_4-3" data-name="Degradado sin nombre 4" x1="53.02" y1="-1.53" x2="6.04" y2="45.45" xlink:href="#Degradado_sin_nombre_4"/>
    <linearGradient id="Degradado_sin_nombre_4-4" data-name="Degradado sin nombre 4" x1="38.6" y1="-5.76" x2="2.6" y2="30.24" xlink:href="#Degradado_sin_nombre_4"/>
    <linearGradient id="Degradado_sin_nombre_4-5" data-name="Degradado sin nombre 4" x1="63.79" y1="9.25" x2="16.81" y2="56.23" xlink:href="#Degradado_sin_nombre_4"/>
    <linearGradient id="Degradado_sin_nombre_4-6" data-name="Degradado sin nombre 4" x1="48.47" y1="-.51" x2="14.43" y2="33.53" xlink:href="#Degradado_sin_nombre_4"/>
    <linearGradient id="Degradado_sin_nombre_4-7" data-name="Degradado sin nombre 4" x1="50.8" y1="-11.6" x2="-7.76" y2="46.95" xlink:href="#Degradado_sin_nombre_4"/>
    <linearGradient id="Degradado_sin_nombre_4-8" data-name="Degradado sin nombre 4" x1="249.87" y1="22.68" x2="126.63" y2="22.68" xlink:href="#Degradado_sin_nombre_4"/>
  </defs>
  <g id="Layer_1-2" data-name="Layer 1">
    <g>
      <g>
        <path class="cls-9" d="M16.77,16.2v16.42l-1.15-.47c-1.37-.57-2.81-.85-4.3-.85-.34,0-.69.02-1.04.05-5.34.47-9.54,4.5-10.2,9.81-.41,3.28.61,6.57,2.79,9,2.19,2.44,5.31,3.8,8.6,3.76,6.15-.09,11.14-5.31,11.14-11.64V11.67l-2.72.61c-1.84.42-3.13,2.03-3.13,3.92Z"/>
        <path class="cls-2" d="M26.87,20.87c0,1.7,1.58,2.96,3.23,2.59,1.21-.27,2.07-1.35,2.07-2.59v-11.36l-5.3,1.19v10.16Z"/>
        <path class="cls-8" d="M36.41,15.19c0,1.7,1.58,2.96,3.23,2.59,1.21-.27,2.07-1.35,2.07-2.59v-7.83l-5.3,1.19v6.64Z"/>
        <path class="cls-7" d="M24.75,4.24c-1.17,0-2.12.95-2.12,2.12v5.3l4.24-.96v-4.35c0-1.17-.95-2.12-2.12-2.12Z"/>
        <path class="cls-6" d="M50.31,6.98c-.96-.77-2.19-1.05-3.39-.78l-.95.21v20.93l-1.15-.47c-1.37-.57-2.81-.85-4.3-.85-.34,0-.69.02-1.04.05-5.34.47-9.54,4.5-10.2,9.81-.41,3.28.61,6.57,2.79,9,2.19,2.44,5.33,3.8,8.6,3.76,6.15-.09,11.15-5.31,11.15-11.64V10.11c0-1.23-.55-2.37-1.51-3.14Z"/>
        <path class="cls-5" d="M43.84.59c-1.17,0-2.12.95-2.12,2.12v4.65l4.24-.96v-3.69c0-1.17-.95-2.12-2.12-2.12Z"/>
        <path class="cls-4" d="M34.29,0c-1.17,0-2.12.95-2.12,2.12v7.39l4.24-.96V2.12c0-1.17-.95-2.12-2.12-2.12Z"/>
      </g>
      <g>
        <path class="cls-1" d="M62.65,18.99c0-1.57,1.1-2.67,2.84-2.67,1.4,0,2.42.76,2.63,1.99l.13,1.74c1.19-2.42,3.73-3.86,6.44-3.86,2.88,0,5.21,1.53,6.44,4.03,1.31-2.54,4.11-4.03,7.04-4.03,2.76,0,5,.93,6.66,2.76,1.65,1.82,2.5,4.11,2.5,6.87v9.24c0,1.7-1.23,2.97-2.92,2.97s-2.88-1.27-2.88-2.97v-9.11c0-2.54-1.82-4.54-4.24-4.54-1.14,0-2.16.42-3.05,1.31-.85.89-1.27,1.95-1.27,3.26v9.07c0,1.7-1.23,2.97-2.92,2.97s-2.93-1.27-2.93-2.97v-9.11c0-2.54-1.82-4.54-4.24-4.54-1.19,0-2.2.47-3.09,1.4-.85.89-1.27,1.99-1.27,3.31v8.94c0,1.7-1.23,2.97-2.93,2.97s-2.93-1.27-2.93-2.97v-16.07Z"/>
        <path class="cls-1" d="M102.89,44.21c0-.47.13-.89.34-1.27l5.04-8.94-7.72-13.65c-.21-.34-.3-.76-.3-1.27,0-1.53,1.23-2.8,2.8-2.8,1.06,0,1.91.55,2.54,1.61l5.81,10.3,5.64-10.26c.64-1.1,1.48-1.65,2.59-1.65,1.53,0,2.8,1.27,2.8,2.8,0,.47-.08.89-.3,1.27l-14.07,25.14c-.55.98-1.36,1.44-2.42,1.44-1.53,0-2.76-1.19-2.76-2.71Z"/>
        <path class="cls-3" d="M126.63,18.99c0-1.57,1.1-2.67,2.84-2.67,1.4,0,2.42.76,2.63,1.99l.13,1.74c1.19-2.42,3.73-3.86,6.44-3.86,2.88,0,5.21,1.53,6.44,4.03,1.31-2.54,4.11-4.03,7.04-4.03,2.76,0,5,.93,6.66,2.76,1.65,1.82,2.5,4.11,2.5,6.87v9.24c0,1.7-1.23,2.97-2.92,2.97s-2.88-1.27-2.88-2.97v-9.11c0-2.54-1.82-4.54-4.24-4.54-1.14,0-2.16.42-3.05,1.31-.85.89-1.27,1.95-1.27,3.26v9.07c0,1.7-1.23,2.97-2.92,2.97s-2.93-1.27-2.93-2.97v-9.11c0-2.54-1.82-4.54-4.24-4.54-1.19,0-2.2.47-3.09,1.4-.85.89-1.27,1.99-1.27,3.31v8.94c0,1.7-1.23,2.97-2.93,2.97s-2.93-1.27-2.93-2.97v-16.07ZM187.97,35.35c0,1.57-1.06,2.67-2.8,2.67-1.57,0-2.46-.68-2.71-1.99v-2.12h-.08c-1.14,2.59-3.77,4.2-6.53,4.2s-4.83-.93-6.49-2.8c-1.65-1.91-2.46-4.28-2.46-7.12v-8.99c0-1.7,1.23-2.97,2.93-2.97s2.92,1.27,2.92,2.97v8.44c0,1.44.42,2.67,1.31,3.73.89,1.02,2.03,1.53,3.35,1.53s2.42-.51,3.31-1.57c.93-1.06,1.4-2.33,1.4-3.82v-8.31c0-1.7,1.23-2.97,2.93-2.97s2.93,1.27,2.93,2.97v16.15ZM195.1,37.13c-1.19-.59-1.78-1.4-1.78-2.37,0-1.23.93-2.29,2.42-2.16.59.08,1.74.3,3.43.68,1.7.34,2.97.51,3.86.51,2.54,0,3.82-.64,3.82-1.91,0-.72-.55-1.36-1.48-1.65-.51-.21-.81-.34-1.53-.51l-.89-.25c-.38-.13-1.44-.3-1.91-.42-1.74-.38-2.88-.72-4.41-1.4-2.03-1.02-3.43-2.54-3.43-5,0-4.03,3.69-6.32,10.34-6.32,2.88,0,5.21.38,6.99,1.14,1.36.55,2.03,1.36,2.03,2.33,0,1.14-.72,2.16-2.29,1.99-.38-.04-1.4-.25-3.14-.64-1.7-.38-3.05-.55-4.03-.55-2.33,0-3.52.64-3.52,1.87,0,.93.68,1.31,1.61,1.82.25.13.64.25,1.14.38,1.02.21,1.36.25,2.54.55.21.04.34.04.42.04,2.42.51,4.07.98,5.77,1.95,1.7.98,2.59,2.46,2.59,4.49,0,4.2-4.07,6.66-10.89,6.66-3.39,0-5.93-.42-7.67-1.23ZM217.66,10.38c0-1.82,1.57-3.39,3.43-3.39s3.48,1.57,3.48,3.39-1.61,3.43-3.48,3.43-3.43-1.57-3.43-3.43ZM218.16,19.2c0-1.7,1.23-2.97,2.93-2.97s2.93,1.27,2.93,2.97v15.85c0,1.74-1.23,3.01-2.93,3.01s-2.93-1.27-2.93-3.01v-15.85ZM230.33,35.1V9.96c0-1.7,1.23-2.93,2.88-2.93s2.88,1.23,2.88,2.93v14.79l7.97-7.33c.81-.81,1.61-1.19,2.42-1.19,1.53,0,2.67,1.14,2.67,2.54,0,.72-.3,1.4-.85,1.95l-5.3,5.13,6.36,7.63c.34.47.51,1.02.51,1.65,0,1.57-1.23,2.92-2.8,2.92-1.06,0-1.87-.42-2.46-1.27l-6.06-7.38-2.46,2.16v3.52c0,1.7-1.23,2.92-2.88,2.92s-2.88-1.23-2.88-2.92Z"/>
      </g>
    </g>
  </g>
</svg>